<svg xmlns="http://www.w3.org/2000/svg" version="1.1" xmlns:xlink="http://www.w3.org/1999/xlink" xmlns:svgjs="http://svgjs.dev/svgjs" width="1500" height="1500" viewBox="0 0 1500 1500"><rect width="1500" height="1500" fill="#000000"></rect><g transform="matrix(0.6666666666666666,0,0,0.6666666666666666,248.52544239255263,292.8634408602151)"><svg viewBox="0 0 272 248" data-background-color="#ede1d1" preserveAspectRatio="xMidYMid meet" height="1367" width="1500" xmlns="http://www.w3.org/2000/svg" xmlns:xlink="http://www.w3.org/1999/xlink"><g id="tight-bounds" transform="matrix(1,0,0,1,0.4010796692256804,0.4000000000000057)"><svg viewBox="0 0 271.19784066154864 247.2" height="247.2" width="271.19784066154864"><g><svg viewBox="0 0 395.52 360.5211006160585" height="247.2" width="271.19784066154864"><g transform="matrix(1,0,0,1,0,259.48830589259154)"><svg viewBox="0 0 395.52 101.03279472346698" height="101.03279472346698" width="395.52"><g id="textblocktransform"><svg viewBox="0 0 395.52 101.03279472346698" height="101.03279472346698" width="395.52" id="textblock"><g><rect width="75.54432" height="5.902432860605659" y="88.01634587599462" fill="#ffffff" data-fill-palette-color="tertiary"></rect><rect width="75.54432" height="5.902432860605659" y="88.01634587599462" x="319.97568" fill="#ffffff" data-fill-palette-color="tertiary"></rect></g><g><svg viewBox="0 0 395.52 65.45093496607645" height="65.45093496607645" width="395.52"><g transform="matrix(1,0,0,1,0,0)"><svg width="395.52" viewBox="2 -37.5 302.12 50" height="65.45093496607645" data-palette-color="#6a704c"><path d="M22.2-34.95L31.7-35Q31.7-34.95 31.75-34.25L31.75-34.25 28.6-33.9 28.6-0.95 32.25-0.75Q32.25-0.7 32.2 0L32.2 0 22.2 0.05Q22.2-0.4 22.25-0.65L22.25-0.65 24.85-1Q25.35-1.05 25.45-1.65L25.45-1.65 25.45-16.85 8.4-16.85 8.4-0.95 12.1-0.75Q12.1-0.7 12.05 0L12.05 0 2 0.05 2.05-0.65 4.65-1Q5.15-1.05 5.25-1.6L5.25-1.6 5.25-33.3Q5.15-33.9 4.65-33.95L4.65-33.95 2.05-34.2 2-34.95 12.05-35Q12.05-34.95 12.1-34.25L12.1-34.25 8.4-33.9 8.4-17.85 25.45-17.85 25.45-33.25Q25.35-33.9 24.85-33.95L24.85-33.95 22.25-34.2Q22.2-34.5 22.2-34.95L22.2-34.95ZM46.17 0.2Q40.95 0.2 37.72-2.8 34.5-5.8 34.5-11.98 34.5-18.15 37.92-21.68 41.35-25.2 46.55-25.2 51.75-25.2 55-22.2 58.25-19.2 58.25-13.03 58.25-6.85 54.82-3.33 51.4 0.2 46.17 0.2ZM46.5-24.3Q42.75-24.3 40.25-21.05 37.75-17.8 37.75-12.23 37.75-6.65 40.12-3.68 42.5-0.7 46.25-0.7 50-0.7 52.5-3.95 55-7.2 55-12.75 55-18.3 52.62-21.3 50.25-24.3 46.5-24.3ZM72.2-0.95L72.2-0.95 74.15-1.05 74.3-0.55Q74.25-0.55 73.59-0.4L73.59-0.4Q72.09-0.05 70.25-0.05L70.25-0.05Q68.55-0.15 67.14-0.63 65.75-1.1 64.55-2.63 63.34-4.15 63.34-6.55L63.34-6.55 63.34-24.1 60.8-24.1 61.2-24.5 63.4-24.95 63.8-29.75 66.59-30 66.59-25 72.65-25 72.65-24.1 66.59-24.1 66.59-7.4Q66.59-3.6 68.2-2.27 69.8-0.95 72.2-0.95ZM79.59-11.5L79.59-11.5Q79.59-0.7 87.99-0.7L87.99-0.7Q90.19-0.7 92.69-1.18 95.19-1.65 95.89-2.05L95.89-2.05 96.24-1.55Q95.09-0.8 92.47-0.3 89.84 0.2 87.67 0.2 85.49 0.2 83.77-0.25 82.04-0.7 80.24-1.85 78.44-3 77.39-5.45 76.34-7.9 76.34-11.45L76.34-11.45Q76.34-18.05 79.74-21.55L79.74-21.55Q83.29-25.2 87.99-25.2 92.69-25.2 95.17-22.6 97.64-20 97.64-15.3L97.64-15.3Q97.64-14.3 97.49-13.15L97.49-13.15 79.64-13.15Q79.59-12.6 79.59-11.5ZM94.69-15.65L94.69-15.65Q94.69-19.4 93.04-21.78 91.39-24.15 88.54-24.15L88.54-24.15Q84.84-24.15 82.29-20.9L82.29-20.9Q80.24-18.35 79.74-14.1L79.74-14.1 94.64-14.1Q94.69-14.65 94.69-15.65ZM111.69 0L101.64 0.05 101.69-0.65 104.29-1Q104.64-1.05 104.74-1.5L104.74-1.5 104.74-35.7Q104.74-36.25 104.44-36.25L104.44-36.25 101.39-36.35 101.44-37.05Q104.59-37.5 105.77-37.5 106.94-37.5 107.47-36.85 107.99-36.2 107.99-35.45L107.99-35.45 107.99-1 111.74-0.75Q111.74-0.7 111.69 0L111.69 0ZM140.03-1.65L140.03-34 131.44-34 130.63-27.4 129.69-27.8 130.19-34 130.13-34 130.24-34.4 130.28-35 130.38-34.95 130.38-35 153.09-35 153.74-27.8 152.74-27.4 151.94-34 143.19-34 143.19-0.95 146.84-0.75Q146.84-0.7 146.78 0L146.78 0 136.78 0.05Q136.78-0.4 136.84-0.65L136.84-0.65 139.44-1Q139.94-1.05 140.03-1.65L140.03-1.65ZM162.33-22.95L162.33-22.95 162.33-18.95Q166.28-24.75 170.08-24.85L170.08-24.85Q170.38-24.85 170.68-24.85L170.68-24.85 173.48-24.5 172.18-21.5Q171.23-22.45 169.73-22.45L169.73-22.45Q166.08-22.4 162.33-17.6L162.33-17.6 162.33-1 166.58-0.75Q166.58-0.7 166.53 0L166.53 0 156.03 0.05Q156.03-0.4 156.08-0.65L156.08-0.65 158.68-1Q159.08-1.05 159.08-1.7L159.08-1.7 159.08-23.4Q158.98-23.75 158.78-23.75L158.78-23.75 155.78-23.85 155.83-24.55Q158.53-25 159.93-25 161.33-25 161.83-24.35 162.33-23.7 162.33-22.95ZM186.41 0.2Q181.18 0.2 177.96-2.8 174.73-5.8 174.73-11.98 174.73-18.15 178.16-21.68 181.58-25.2 186.78-25.2 191.98-25.2 195.23-22.2 198.48-19.2 198.48-13.03 198.48-6.85 195.06-3.33 191.63 0.2 186.41 0.2ZM186.73-24.3Q182.98-24.3 180.48-21.05 177.98-17.8 177.98-12.23 177.98-6.65 180.36-3.68 182.73-0.7 186.48-0.7 190.23-0.7 192.73-3.95 195.23-7.2 195.23-12.75 195.23-18.3 192.86-21.3 190.48-24.3 186.73-24.3ZM212.53 12.45L201.98 12.5 202.03 11.8 204.63 11.45Q205.08 11.4 205.08 10.75L205.08 10.75 205.08-23.35Q204.98-23.75 204.78-23.75L204.78-23.75 201.73-23.85 201.78-24.55Q204.93-25 206.08-25 207.23-25 207.73-24.43 208.23-23.85 208.33-23.15L208.33-23.15Q211.48-25.45 215.03-25.45L215.03-25.45Q218.43-25.45 221.43-23.35L221.43-23.35Q223.03-22.2 224-19.75 224.98-17.3 224.98-13.8L224.98-13.8Q224.98-7.15 221.68-3.8L221.68-3.8Q217.93 0 211.98 0L211.98 0Q210.23 0 208.33-0.25L208.33-0.25 208.33 11.45 212.58 11.7Q212.53 12.4 212.53 12.45L212.53 12.45ZM208.33-22.15L208.33-22.15 208.33-1.3Q209.78-0.95 211.48-0.95L211.48-0.95Q216.38-0.95 219.05-4.28 221.73-7.6 221.73-13.55L221.73-13.55Q221.73-20.35 219.03-22.7L219.03-22.7Q216.93-24.55 214.33-24.55 211.73-24.55 208.33-22.15ZM235.28-22.95L235.28-22.95 235.28-1 239.03-0.75Q239.03-0.7 238.98 0L238.98 0 228.98 0.05Q228.98-0.4 229.03-0.65L229.03-0.65 231.63-1Q231.93-1 232.03-1.45L232.03-1.45 232.03-23.4Q231.93-23.75 231.73-23.75L231.73-23.75 228.73-23.85 228.78-24.55Q231.48-25 232.88-25 234.28-25 234.78-24.35 235.28-23.7 235.28-22.95ZM233.58-31.7Q232.58-31.7 232.03-32.33 231.48-32.95 231.48-33.98 231.48-35 232.05-35.63 232.63-36.25 233.63-36.25 234.63-36.25 235.25-35.63 235.88-35 235.88-33.93 235.88-32.85 235.23-32.27 234.58-31.7 233.58-31.7ZM256.52-24.3L256.52-24.3Q252.27-24.3 249.65-20.98 247.02-17.65 247.02-11.55L247.02-11.55Q247.02-0.7 255.27-0.7L255.27-0.7Q258.52-0.7 260.82-1.33 263.12-1.95 263.32-2.1L263.32-2.1 263.67-1.55Q262.52-0.8 259.87-0.3 257.22 0.2 255.07 0.2 252.92 0.2 251.17-0.25 249.42-0.7 247.65-1.85 245.87-3 244.82-5.48 243.77-7.95 243.77-11.5L243.77-11.5Q243.77-18.05 247.12-21.4L247.12-21.4Q250.87-25.25 256.57-25.25L256.57-25.25Q258.37-25.25 260.4-24.78 262.42-24.3 263.52-23.3L263.52-23.3 263.52-16.75 262.57-16.4 262.32-21.65Q261.22-22.8 259.65-23.55 258.07-24.3 256.52-24.3ZM284.82-1.9L284.82-1.9 284.67-1.9Q280.17 0.2 275.92 0.2L275.92 0.2Q269.27 0.2 268.87-5.05L268.87-5.05Q268.82-5.4 268.82-5.7L268.82-5.7Q268.82-9.55 273.87-10.85L273.87-10.85Q276.87-11.5 284.67-12.4L284.67-12.4 284.67-16.8Q284.67-18.9 284.17-20.4 283.67-21.9 283.07-22.63 282.47-23.35 281.52-23.75L281.52-23.75Q280.32-24.25 278.84-24.25 277.37-24.25 275.47-23.5L275.47-23.5Q272.72-22.35 270.57-20.6L270.57-20.6 270.37-16.7 269.42-16.45 269.42-22.5 269.92-22.7Q273.82-24.4 275.87-24.75 277.92-25.1 278.87-25.13 279.82-25.15 280.69-25.1 281.57-25.05 282.97-24.65 284.37-24.25 285.39-23.53 286.42-22.8 287.17-21.35 287.92-19.9 287.92-17.9L287.92-17.9 287.92-2.6Q287.92-1.05 288.72-1.05L288.72-1.05 291.77-0.9 291.72-0.15Q288.92 0.25 286.72 0.25L286.72 0.25Q286.12 0.2 285.47-0.38 284.82-0.95 284.82-1.9ZM276.82-0.6L276.82-0.6Q280.52-0.6 284.67-3.2L284.67-3.2 284.67-11.45Q277.17-11.2 275.25-10.58 273.32-9.95 272.59-8.63 271.87-7.3 271.87-6L271.87-6Q271.87-5.75 271.87-5.5L271.87-5.5Q272.02-2.9 273.42-1.75 274.82-0.6 276.82-0.6ZM304.07 0L294.02 0.05 294.07-0.65 296.67-1Q297.02-1.05 297.12-1.5L297.12-1.5 297.12-35.7Q297.12-36.25 296.82-36.25L296.82-36.25 293.77-36.35 293.82-37.05Q296.97-37.5 298.14-37.5 299.32-37.5 299.84-36.85 300.37-36.2 300.37-35.45L300.37-35.45 300.37-1 304.12-0.75Q304.12-0.7 304.07 0L304.07 0Z" opacity="1" transform="matrix(1,0,0,1,0,0)" fill="#ffffff" class="wordmark-text-0" data-fill-palette-color="primary" id="text-0"></path></svg></g></svg></g><g transform="matrix(1,0,0,1,75.54432,80.90232988912791)"><svg viewBox="0 0 244.43135999999998 20.130464834339065" height="20.130464834339065" width="244.43135999999998"><g transform="matrix(1,0,0,1,8,0)"><svg width="228.43135999999998" viewBox="2.8 -37.95 439.11 38.7" height="20.130464834339065" data-palette-color="#6a704c"><path d="M24.1 0.25L24.1 0.25 23.85-2.2 29.6-3.35 27.6-1.4Q27.75-2.15 27.93-3.2 28.1-4.25 28.2-5.25 28.3-6.25 28.3-6.75L28.3-6.75 28.3-28.5Q28.3-29.05 28.18-30.15 28.05-31.25 27.88-32.35 27.7-33.45 27.6-33.9L27.6-33.9 29.6-32 24-32.9 24.25-35.5Q25.2-35.45 26.35-35.4 27.5-35.35 28.5-35.3 29.5-35.25 29.95-35.25L29.95-35.25Q31.25-35.25 32.95-35.33 34.65-35.4 36.7-35.5L36.7-35.5 36.9-32.65 31.3-32.15 33.1-33.9Q33.05-33.05 32.85-31 32.65-28.95 32.65-27L32.65-27 32.65-8.25Q32.65-6.95 32.73-5.6 32.8-4.25 32.95-3.15 33.1-2.05 33.2-1.4L33.2-1.4 31.3-3.15 37.55-2.65 37.2 0 30.8 0Q29.55 0 27.85 0.08 26.15 0.15 24.1 0.25ZM3.05 0.25L3.05 0.25 2.8-2.2 8.5-3.35 6.55-1.4Q6.65-1.85 6.8-2.93 6.95-4 7.1-5.13 7.25-6.25 7.25-6.75L7.25-6.75 7.25-28.5Q7.25-29.05 7.13-30.13 7-31.2 6.83-32.3 6.65-33.4 6.55-33.9L6.55-33.9 8.5-32 2.9-32.9 3.15-35.5Q4.1-35.45 5.25-35.4 6.4-35.35 7.43-35.3 8.45-35.25 8.9-35.25L8.9-35.25Q10.2-35.25 11.9-35.33 13.6-35.4 15.65-35.5L15.65-35.5 15.85-32.65 10.2-32.15 12.1-33.9Q12.05-33.5 11.9-32.35 11.75-31.2 11.65-29.75 11.55-28.3 11.55-27L11.55-27 11.55-8.25Q11.55-6.95 11.65-5.63 11.75-4.3 11.9-3.18 12.05-2.05 12.15-1.4L12.15-1.4 10.2-3.15 16.5-2.65 16.15 0 9.75 0Q8.5 0 6.8 0.08 5.1 0.15 3.05 0.25ZM31.05-16.45L8.8-16.45 8.8-18.85 31.05-19.1 31.05-16.45ZM54.1 0.5L54.1 0.5Q50.3 0.5 47.75-1.15 45.2-2.8 43.92-5.68 42.65-8.55 42.65-12.3L42.65-12.3Q42.65-16.1 43.92-18.98 45.2-21.85 47.75-23.5 50.3-25.15 54.1-25.15L54.1-25.15Q59.8-25.15 62.62-21.63 65.45-18.1 65.45-12.3L65.45-12.3Q65.45-8.55 64.17-5.65 62.9-2.75 60.37-1.13 57.85 0.5 54.1 0.5ZM54.1-2.2L54.1-2.2Q56.8-2.2 58.35-3.7 59.9-5.2 60.52-7.53 61.15-9.85 61.15-12.3L61.15-12.3Q61.15-14.8 60.52-17.13 59.9-19.45 58.35-20.95 56.8-22.45 54.1-22.45L54.1-22.45Q51.4-22.45 49.85-20.98 48.3-19.5 47.62-17.18 46.95-14.85 46.95-12.3L46.95-12.3Q46.95-9.8 47.62-7.48 48.3-5.15 49.85-3.68 51.4-2.2 54.1-2.2ZM78.9 0.75L78.9 0.75Q75.55 0.75 74.42-1.05 73.3-2.85 73.3-6.2L73.3-6.2 73.3-23.75 74.9-22.1 69.1-22.1 68.95-24.1Q69.6-24.35 70.55-24.68 71.5-25 72.47-25.35 73.45-25.7 74.05-25.9L74.05-25.9 72.35-24.25Q72.6-24.55 73.02-25.33 73.45-26.1 73.9-27.08 74.35-28.05 74.75-28.85 75.15-29.65 75.3-30L75.3-30 77.1-29.8 77.1-6Q77.1-4.3 77.7-3.35 78.3-2.4 80-2.4L80-2.4Q81.1-2.4 82.27-2.93 83.45-3.45 84.4-4.3L84.4-4.3 85.75-2.15Q83.95-0.7 82.22 0.03 80.5 0.75 78.9 0.75ZM84.25-22.1L76.25-22.1 76.25-24.7 84.5-24.7 84.25-22.1ZM100.89 0.5L100.89 0.5Q97.14 0.5 94.59-1.15 92.04-2.8 90.77-5.7 89.49-8.6 89.49-12.25L89.49-12.25Q89.49-15.95 90.64-18.85 91.79-21.75 94.19-23.43 96.59-25.1 100.24-25.1L100.24-25.1Q103.74-25.1 105.79-23.65 107.84-22.2 108.77-19.6 109.69-17 109.69-13.6L109.69-13.6 108.89-12 92.69-12 92.69-14.25 107.14-15.35 105.54-13.6Q105.54-14.25 105.57-14.88 105.59-15.5 105.59-16.25L105.59-16.25Q105.59-18.9 104.24-20.8 102.89-22.7 100.09-22.7L100.09-22.7Q98.24-22.7 96.99-21.78 95.74-20.85 95.04-19.3 94.34-17.75 94.04-15.98 93.74-14.2 93.74-12.45L93.74-12.45Q93.74-10.8 94.14-9.08 94.54-7.35 95.39-5.85 96.24-4.35 97.52-3.45 98.79-2.55 100.59-2.55L100.59-2.55Q102.94-2.55 105.07-3.28 107.19-4 108.29-4.65L108.29-4.65 109.59-2.45Q109.74-2.6 109.24-2.18 108.74-1.75 107.62-1.13 106.49-0.5 104.82 0 103.14 0.5 100.89 0.5ZM113.34 0.25L113.34 0.25 113.09-2.15 118.69-3.3 116.69-1.45Q116.79-1.85 116.97-2.85 117.14-3.85 117.32-4.98 117.49-6.1 117.49-6.7L117.49-6.7 117.49-30.9Q117.49-31.55 117.37-32.58 117.24-33.6 117.07-34.7 116.89-35.8 116.74-36.55L116.74-36.55 118.69-34.25 113.19-35.45 113.44-37.95 117.89-37.8 120.64-37.8 121.59-36.9Q121.54-36.15 121.47-34.83 121.39-33.5 121.34-32.05 121.29-30.6 121.29-29.4L121.29-29.4 121.29-8.2Q121.29-6.2 121.44-4.17 121.59-2.15 121.74-1.25L121.74-1.25 119.89-3.1 125.54-2.6 125.19 0 118.84 0Q118.34 0 117.39 0.05 116.44 0.1 115.37 0.15 114.29 0.2 113.34 0.25ZM174.34 0L167.04 0 166.64-1.25Q164.99-2.85 163.84-4.03 162.69-5.2 161.59-6.33 160.49-7.45 159.11-8.88 157.74-10.3 155.66-12.38 153.59-14.45 150.44-17.6L150.44-17.6Q148.03-19.95 147.16-22.2 146.28-24.45 146.28-26.15L146.28-26.15Q146.28-28.7 147.46-30.23 148.64-31.75 150.69-32.43 152.74-33.1 155.24-33.1L155.24-33.1Q156.44-33.1 157.99-32.83 159.54-32.55 160.96-32.2 162.39-31.85 163.09-31.55L163.09-31.55 162.44-24.65 159.74-24.75 159.84-27.1Q159.84-27.4 159.71-28.1 159.59-28.8 159.41-29.68 159.24-30.55 159.04-31.2L159.04-31.2 160.99-29Q159.54-29.7 158.09-30.28 156.64-30.85 155.19-30.85L155.19-30.85Q153.19-30.85 151.76-29.58 150.34-28.3 150.34-26.15L150.34-26.15Q150.34-24.45 151.09-22.9 151.84-21.35 153.49-19.6L153.49-19.6Q157.09-15.85 160.66-12.23 164.24-8.6 167.79-5.05L167.79-5.05 170.64-3 174.74-2.65 174.34 0ZM153.84 0.5L153.84 0.5Q150.78 0.5 148.24-0.73 145.69-1.95 144.16-4.23 142.64-6.5 142.64-9.55L142.64-9.55Q142.64-12.95 144.39-15.4 146.14-17.85 149.24-19.65L149.24-19.65 150.99-17.5Q148.84-16.05 147.81-14.18 146.78-12.3 146.78-9.9L146.78-9.9Q146.78-7.8 147.64-6.08 148.49-4.35 150.06-3.33 151.64-2.3 153.74-2.3L153.74-2.3Q157.64-2.3 160.06-3.85 162.49-5.4 163.64-8.05 164.79-10.7 164.79-13.95L164.79-13.95Q164.79-14.4 164.69-15.13 164.59-15.85 164.49-16.5 164.39-17.15 164.34-17.35L164.34-17.35 168.14-17.35Q168.14-17.2 168.06-16.6 167.99-16 167.94-15.15 167.89-14.3 167.89-13.35L167.89-13.35Q167.94-9.55 166.26-6.4 164.59-3.25 161.41-1.38 158.24 0.5 153.84 0.5ZM167.89-16.85L164.49-16.85 160.34-17.45 160.59-20.1Q162.04-20.05 163.49-19.95 164.94-19.85 166.44-19.85L166.44-19.85Q167.84-19.85 169.16-19.9 170.49-19.95 171.89-20.1L171.89-20.1 172.09-17.2 167.89-16.85ZM193.28 0.25L193.28 0.25 193.03-2.2 198.73-3.35 196.78-1.4Q196.88-1.85 197.03-2.93 197.18-4 197.33-5.13 197.48-6.25 197.48-6.75L197.48-6.75 197.48-28.5Q197.48-29.05 197.36-30.13 197.23-31.2 197.06-32.3 196.88-33.4 196.78-33.9L196.78-33.9 198.73-32 193.13-32.9 193.38-35.5Q194.33-35.45 195.48-35.4 196.63-35.35 197.66-35.3 198.68-35.25 199.13-35.25L199.13-35.25 202.33-33.9Q202.28-33.5 202.16-32.35 202.03-31.2 201.91-29.75 201.78-28.3 201.78-27L201.78-27 201.78-8.25Q201.78-6.95 201.88-5.63 201.98-4.3 202.13-3.18 202.28-2.05 202.38-1.4L202.38-1.4 200.43-3.15 206.78-2.65 206.43 0 199.98 0Q199.38 0 198.23 0.05 197.08 0.1 195.76 0.15 194.43 0.2 193.28 0.25ZM222.18 0L214.43 0Q213.98-1 213.41-2.2 212.83-3.4 212.33-4.4 211.83-5.4 211.63-5.8L211.63-5.8 205.58-17.25 210.28-17.45Q211.63-14.8 212.96-12.4 214.28-10 215.26-8.4 216.23-6.8 216.38-6.55L216.38-6.55Q216.73-6 217.48-4.93 218.23-3.85 218.88-3L218.88-3 222.53-2.65 222.18 0ZM206.38-15.15L206.38-15.15Q204.38-15.15 202.38-15.2 200.38-15.25 198.38-15.35L198.38-15.35 198.38-18.2Q200.13-18 201.88-17.75 203.63-17.5 205.38-17.5L205.38-17.5Q209.28-17.5 211.63-19.48 213.98-21.45 213.98-25.4L213.98-25.4Q213.98-29.2 211.63-31.15 209.28-33.1 205.38-33.1L205.38-33.1Q204.48-33.1 203.43-33.05 202.38-33 201.31-32.88 200.23-32.75 199.13-32.6L199.13-32.6 199.13-35.25Q201.18-35.25 203.28-35.38 205.38-35.5 207.43-35.5L207.43-35.5Q210.88-35.5 213.33-34.38 215.78-33.25 217.11-31 218.43-28.75 218.43-25.4L218.43-25.4Q218.43-22.15 216.81-19.85 215.18-17.55 212.43-16.35 209.68-15.15 206.38-15.15ZM237.63 0.5L237.63 0.5Q233.88 0.5 231.33-1.15 228.78-2.8 227.5-5.7 226.23-8.6 226.23-12.25L226.23-12.25Q226.23-15.95 227.38-18.85 228.53-21.75 230.93-23.43 233.33-25.1 236.98-25.1L236.98-25.1Q240.48-25.1 242.53-23.65 244.58-22.2 245.5-19.6 246.43-17 246.43-13.6L246.43-13.6 245.63-12 229.43-12 229.43-14.25 243.88-15.35 242.28-13.6Q242.28-14.25 242.3-14.88 242.33-15.5 242.33-16.25L242.33-16.25Q242.33-18.9 240.98-20.8 239.63-22.7 236.83-22.7L236.83-22.7Q234.98-22.7 233.73-21.78 232.48-20.85 231.78-19.3 231.08-17.75 230.78-15.98 230.48-14.2 230.48-12.45L230.48-12.45Q230.48-10.8 230.88-9.08 231.28-7.35 232.13-5.85 232.98-4.35 234.25-3.45 235.53-2.55 237.33-2.55L237.33-2.55Q239.68-2.55 241.8-3.28 243.93-4 245.03-4.65L245.03-4.65 246.33-2.45Q246.48-2.6 245.98-2.18 245.48-1.75 244.35-1.13 243.23-0.5 241.55 0 239.88 0.5 237.63 0.5ZM259.53 0.5L259.53 0.5Q256.48 0.5 254.55-0.28 252.63-1.05 251.78-1.55L251.78-1.55 251.78-8 254.63-8.2 254.63-6.2Q254.63-5.85 254.88-5.05 255.13-4.25 255.53-3.4 255.93-2.55 256.33-1.95L256.33-1.95 254.88-4.1Q255.78-2.8 256.93-2.35 258.08-1.9 259.58-1.9L259.58-1.9Q261.58-1.9 262.78-2.85 263.98-3.8 263.98-5.85L263.98-5.85Q263.98-7.7 262.38-8.78 260.78-9.85 258.68-10.85L258.68-10.85Q257.43-11.45 256.18-12.13 254.93-12.8 253.9-13.68 252.88-14.55 252.25-15.75 251.63-16.95 251.63-18.6L251.63-18.6Q251.63-21.7 253.85-23.43 256.08-25.15 259.33-25.15L259.33-25.15Q260.98-25.15 262.83-24.93 264.68-24.7 266.43-24.3L266.43-24.3 266.38-17.25 263.53-17.4 263.53-19.15Q263.53-19.45 263.25-20.25 262.98-21.05 262.65-21.93 262.33-22.8 262.13-23.3L262.13-23.3 263.83-21.45Q262.58-22.15 261.68-22.4 260.78-22.65 259.38-22.65L259.38-22.65Q257.63-22.65 256.53-21.78 255.43-20.9 255.43-19.3L255.43-19.3Q255.43-17.55 257.03-16.48 258.63-15.4 260.73-14.45L260.73-14.45Q262.03-13.85 263.28-13.15 264.53-12.45 265.58-11.58 266.63-10.7 267.25-9.53 267.88-8.35 267.88-6.75L267.88-6.75Q267.88-2.8 265.63-1.15 263.38 0.5 259.53 0.5ZM281.32 0.75L281.32 0.75Q277.97 0.75 276.85-1.05 275.72-2.85 275.72-6.2L275.72-6.2 275.72-23.75 277.32-22.1 271.52-22.1 271.37-24.1Q272.02-24.35 272.97-24.68 273.92-25 274.9-25.35 275.87-25.7 276.47-25.9L276.47-25.9 274.77-24.25Q275.02-24.55 275.45-25.33 275.87-26.1 276.32-27.08 276.77-28.05 277.17-28.85 277.57-29.65 277.72-30L277.72-30 279.52-29.8 279.52-6Q279.52-4.3 280.12-3.35 280.72-2.4 282.42-2.4L282.42-2.4Q283.52-2.4 284.7-2.93 285.87-3.45 286.82-4.3L286.82-4.3 288.17-2.15Q286.37-0.7 284.65 0.03 282.92 0.75 281.32 0.75ZM286.67-22.1L278.67-22.1 278.67-24.7 286.92-24.7 286.67-22.1ZM299.02 0.5L299.02 0.5Q295.67 0.5 293.72-1.23 291.77-2.95 291.77-5.85L291.77-5.85Q291.77-8.45 293.45-10.18 295.12-11.9 298.47-12.45L298.47-12.45 307.22-13.9 307.22-11.45 299.07-9.9Q297.57-9.65 296.72-8.75 295.87-7.85 295.87-6.55L295.87-6.55Q295.87-4.65 296.85-3.58 297.82-2.5 299.62-2.5L299.62-2.5Q302.27-2.5 304.25-4.2 306.22-5.9 306.57-8.4L306.57-8.4 306.57-15.45Q306.57-19.05 305.37-20.83 304.17-22.6 301.77-22.6L301.77-22.6Q300.72-22.6 299.52-22.4 298.32-22.2 297.27-21.85 296.22-21.5 295.67-21.1L295.67-21.1 297.22-23.25 296.62-19.5 296.67-17.45 293.77-17.3 293.27-23.95Q294.77-24.35 296.27-24.6 297.77-24.85 299.27-24.98 300.77-25.1 302.27-25.1L302.27-25.1Q306.72-25.1 308.52-22.68 310.32-20.25 310.32-14.35L310.32-14.35 310.32-8.2Q310.32-5.95 310.6-4.28 310.87-2.6 311.07-1.65L311.07-1.65 309.42-3.15 314.32-2.6 314.02 0 307.77 0 306.77-5.65 307.67-5.8Q307.57-4.4 306.35-2.93 305.12-1.45 303.2-0.48 301.27 0.5 299.02 0.5ZM328.42 0.55L328.42 0.55Q324.92 0.55 323.19-0.93 321.47-2.4 320.92-5.03 320.37-7.65 320.37-11.05L320.37-11.05 320.37-17.8Q320.37-18.25 320.27-19.13 320.17-20 319.99-21.05 319.82-22.1 319.67-22.95L319.67-22.95 321.47-21.1 316.52-22.1 316.72-24.7 323.52-24.7 324.47-23.8Q324.42-22.75 324.32-21.35 324.22-19.95 324.17-18.6 324.12-17.25 324.12-16.3L324.12-16.3 324.12-9.15Q324.12-6.25 325.22-4.38 326.32-2.5 329.22-2.5L329.22-2.5Q331.37-2.5 332.77-3.65 334.17-4.8 334.89-6.63 335.62-8.45 335.62-10.4L335.62-10.4 335.62-17.8Q335.62-18.25 335.52-19.13 335.42-20 335.27-21.05 335.12-22.1 334.97-22.95L334.97-22.95 336.82-21.15 331.62-22.1 331.82-24.7 338.77-24.7 339.72-23.8Q339.67-22.75 339.59-21.35 339.52-19.95 339.47-18.6 339.42-17.25 339.42-16.3L339.42-16.3 339.42-8.2Q339.42-6.5 339.64-4.78 339.87-3.05 340.02-1.3L340.02-1.3 338.22-3.15 343.42-2.6 343.12 0 336.87 0 335.92-5.55 336.42-4.35Q336.12-3.75 335.24-2.58 334.37-1.4 332.74-0.43 331.12 0.55 328.42 0.55ZM346.47 0.25L346.47 0.25 346.22-2.15 351.82-3.3 349.82-1.45Q349.92-1.85 350.09-2.85 350.27-3.85 350.44-4.98 350.62-6.1 350.62-6.7L350.62-6.7 350.62-17.8Q350.62-18.45 350.47-19.58 350.32-20.7 350.12-21.83 349.92-22.95 349.82-23.45L349.82-23.45 351.82-21.15 346.32-22.1 346.57-24.7 352.77-24.7 353.72-23.8 354.42-16.3 352.92-17.9Q353.47-19.25 354.17-20.53 354.87-21.8 355.89-22.85 356.92-23.9 358.44-24.53 359.97-25.15 362.17-25.15L362.17-25.15Q363.02-25.15 363.84-25.03 364.67-24.9 365.47-24.65L365.47-24.65 365.02-16.6 362.17-16.75 362.17-19.35Q362.17-19.6 361.97-20.3 361.77-21 361.49-21.83 361.22-22.65 360.97-23.2L360.97-23.2 363.32-21.9Q362.82-21.85 362.29-21.85 361.77-21.85 361.27-21.85L361.27-21.85Q357.67-21.85 356.04-19.7 354.42-17.55 354.42-14L354.42-14 354.42-8.2Q354.42-6.25 354.57-4.2 354.72-2.15 354.87-1.25L354.87-1.25 353.02-3.1 359.72-2.6 359.42 0 351.97 0Q351.47 0 350.52 0.05 349.57 0.1 348.49 0.15 347.42 0.2 346.47 0.25ZM376.66 0.5L376.66 0.5Q373.31 0.5 371.36-1.23 369.41-2.95 369.41-5.85L369.41-5.85Q369.41-8.45 371.09-10.18 372.76-11.9 376.11-12.45L376.11-12.45 384.86-13.9 384.86-11.45 376.71-9.9Q375.21-9.65 374.36-8.75 373.51-7.85 373.51-6.55L373.51-6.55Q373.51-4.65 374.49-3.58 375.46-2.5 377.26-2.5L377.26-2.5Q379.91-2.5 381.89-4.2 383.86-5.9 384.21-8.4L384.21-8.4 384.21-15.45Q384.21-19.05 383.01-20.83 381.81-22.6 379.41-22.6L379.41-22.6Q378.36-22.6 377.16-22.4 375.96-22.2 374.91-21.85 373.86-21.5 373.31-21.1L373.31-21.1 374.86-23.25 374.26-19.5 374.31-17.45 371.41-17.3 370.91-23.95Q372.41-24.35 373.91-24.6 375.41-24.85 376.91-24.98 378.41-25.1 379.91-25.1L379.91-25.1Q384.36-25.1 386.16-22.68 387.96-20.25 387.96-14.35L387.96-14.35 387.96-8.2Q387.96-5.95 388.24-4.28 388.51-2.6 388.71-1.65L388.71-1.65 387.06-3.15 391.96-2.6 391.66 0 385.41 0 384.41-5.65 385.31-5.8Q385.21-4.4 383.99-2.93 382.76-1.45 380.84-0.48 378.91 0.5 376.66 0.5ZM395.06 0.25L395.06 0.25 394.81-2.15 400.41-3.3 398.41-1.45Q398.51-1.85 398.69-2.85 398.86-3.85 399.04-4.98 399.21-6.1 399.21-6.7L399.21-6.7 399.21-17.8Q399.21-18.45 399.06-19.58 398.91-20.7 398.71-21.83 398.51-22.95 398.41-23.45L398.41-23.45 400.41-21.15 394.91-22.1 395.16-24.7 401.36-24.7 402.31-23.8 403.01-16.3 401.91-19.2Q402.66-21.1 403.84-22.4 405.01-23.7 406.61-24.4 408.21-25.1 410.11-25.1L410.11-25.1Q413.66-25.1 415.46-23.68 417.26-22.25 417.91-19.65 418.56-17.05 418.56-13.55L418.56-13.55 418.56-8.2Q418.56-6.35 418.74-4.55 418.91-2.75 419.06-1.75L419.06-1.75 417.26-3.1 422.91-2.6 422.56 0 416.16 0Q415.96 0 415.06 0.05 414.16 0.1 413.09 0.15 412.01 0.2 411.16 0.25L411.16 0.25 410.91-2.15 415.91-3.35 414.06-2.2Q414.21-2.7 414.39-3.43 414.56-4.15 414.69-5 414.81-5.85 414.81-6.7L414.81-6.7 414.81-13.6Q414.81-15.8 414.41-17.78 414.01-19.75 412.86-21 411.71-22.25 409.51-22.25L409.51-22.25Q406.46-22.25 404.74-19.85 403.01-17.45 403.01-13.75L403.01-13.75 403.01-8.2Q403.01-6.25 403.16-4.2 403.31-2.15 403.46-1.25L403.46-1.25 401.61-3.1 407.26-2.6 406.91 0 400.56 0Q400.06 0 399.11 0.05 398.16 0.1 397.09 0.15 396.01 0.2 395.06 0.25ZM435.06 0.75L435.06 0.75Q431.71 0.75 430.58-1.05 429.46-2.85 429.46-6.2L429.46-6.2 429.46-23.75 431.06-22.1 425.26-22.1 425.11-24.1Q425.76-24.35 426.71-24.68 427.66-25 428.63-25.35 429.61-25.7 430.21-25.9L430.21-25.9 428.51-24.25Q428.76-24.55 429.18-25.33 429.61-26.1 430.06-27.08 430.51-28.05 430.91-28.85 431.31-29.65 431.46-30L431.46-30 433.26-29.8 433.26-6Q433.26-4.3 433.86-3.35 434.46-2.4 436.16-2.4L436.16-2.4Q437.26-2.4 438.43-2.93 439.61-3.45 440.56-4.3L440.56-4.3 441.91-2.15Q440.11-0.7 438.38 0.03 436.66 0.75 435.06 0.75ZM440.41-22.1L432.41-22.1 432.41-24.7 440.66-24.7 440.41-22.1Z" opacity="1" transform="matrix(1,0,0,1,0,0)" fill="#ffffff" class="slogan-text-1" data-fill-palette-color="secondary" id="text-1"></path></svg></g></svg></g></svg></g></svg></g><g transform="matrix(1,0,0,1,83.46724197675569,0)"><svg viewBox="0 0 228.5855160464886 228.5855160464886" height="228.5855160464886" width="228.5855160464886"><g><svg></svg></g><g id="icon-0"><svg viewBox="0 0 228.5855160464886 228.5855160464886" height="228.5855160464886" width="228.5855160464886"><g><path d="M0 114.293c0-63.122 51.171-114.293 114.293-114.293 63.122 0 114.293 51.171 114.293 114.293 0 63.122-51.171 114.293-114.293 114.293-63.122 0-114.293-51.171-114.293-114.293zM114.293 222.683c59.862 0 108.39-48.528 108.39-108.39 0-59.862-48.528-108.39-108.39-108.391-59.862 0-108.39 48.528-108.391 108.391 0 59.862 48.528 108.39 108.391 108.39z" data-fill-palette-color="tertiary" fill="#ffffff" stroke="transparent"></path></g><g transform="matrix(1,0,0,1,47.00084761782668,47.838876384228996)"><svg viewBox="0 0 134.58382081083525 132.90776327803061" height="132.90776327803061" width="134.58382081083525"><g><svg xmlns="http://www.w3.org/2000/svg" xmlns:xlink="http://www.w3.org/1999/xlink" version="1.1" x="0" y="0" viewBox="1.938518701623575 2.5367211862648222 96.12370013893586 94.92661084002701" enable-background="new 0 0 100 100" xml:space="preserve" height="132.90776327803061" width="134.58382081083525" class="icon-dxe-0" data-fill-palette-color="accent" id="dxe-0"><path d="M67.054 97C71.879 94.669 65.647 84.657 64.931 74.35 64.424 67.072 62.747 63.638 62.21 61.426 61.524 58.605 63.928 59.967 78.148 54.551 92.232 49.187 98.826 51.105 97.992 44.446 97.484 40.394 87.991 39.55 74.813 40.071 72.519 40.161 63.569 40.637 61.585 40.175 59.345 39.654 59.605 37.831 60.157 32.188 60.488 28.799 61.591 24.756 62.002 15.799 62.522 4.445 60.439 2.882 57.679 2.57S53.657 4.163 52.627 7.31C49.815 15.903 46.375 21.939 42.391 30.973 40.959 34.221 40.96 36.061 38.316 35.047 35.561 33.991 24.946 31.593 23.46 31.217 19.346 30.175 16.621 28.988 10.886 26.606 6.063 24.603 4.147 25.119 3.043 26.269 2.029 27.324 0.731 29.263 4.189 33.457 11.338 42.129 18.955 45.137 22.367 47.416 32.947 54.483 30.909 50.001 22.744 64.981 19.105 71.661 16.612 75.685 11.585 81.427 9.188 84.166 9.869 86.851 11.473 88.285 15.075 91.506 23.675 84.434 27.835 81.115 30.807 78.744 37.731 71.948 41.178 69.512 43.077 68.17 44.216 67.937 46.168 71.688 48.073 75.346 52.978 84.664 55.153 87.834 56.984 90.502 61.664 99.604 67.054 97" fill="#ffffff" data-fill-palette-color="accent"></path></svg></g></svg></g></svg></g></svg></g><g></g></svg></g><defs></defs></svg><rect width="271.19784066154864" height="247.2" fill="none" stroke="none" visibility="hidden"></rect></g></svg></g></svg>